# xmcd CD database file
#
# Track frame offsets:
#	150
#	20727
#	40622
#
# Disc length: 718 seconds
#
# Revision: 0
# Processed by: cddbd v1.5PL3 Copyright (c) Steve Scherf et al.
# Submitted via: CDex 1.50beta9
#
DISCID=1b02cc03
DTITLE=ROAD OF MAJOR - 雑走│足跡
DYEAR=2003
DGENRE=Rock
TTITLE0=雑走
TTITLE1=足跡
TTITLE2=HEY! Police
EXTD=YEAR: 2003
EXTT0=
EXTT1=
EXTT2=
PLAYORDER=
